<svg xmlns="http://www.w3.org/2000/svg" viewBox="0 0 420 120" role="img" aria-labelledby="title desc">
  <title id="title">Signal Schedule</title>
  <desc id="desc">Signal Schedule shield and wordmark.</desc>
  <defs>
    <linearGradient id="shield" x1="0" x2="1" y1="0" y2="1">
      <stop offset="0" stop-color="#3b82f6"/>
      <stop offset="0.52" stop-color="#0f4fb6"/>
      <stop offset="1" stop-color="#061a3b"/>
    </linearGradient>
    <linearGradient id="stroke" x1="0" x2="1">
      <stop offset="0" stop-color="#f8fafc"/>
      <stop offset="1" stop-color="#93c5fd"/>
    </linearGradient>
  </defs>
  <path d="M58 8 106 24v31c0 31-19 50-48 59C29 105 10 86 10 55V24L58 8Z" fill="url(#shield)" stroke="url(#stroke)" stroke-width="5"/>
  <path d="M34 66c7 12 35 17 49 5 10-9 4-23-13-27l-18-4c-9-2-11-8-5-12 9-6 29-3 36 7" fill="none" stroke="#f8fafc" stroke-width="10" stroke-linecap="round"/>
  <path d="M32 83h51" stroke="#38bdf8" stroke-width="6" stroke-linecap="round" opacity=".95"/>
  <text x="128" y="52" fill="#f8fafc" font-family="Inter, Arial, sans-serif" font-size="42" font-weight="800" letter-spacing="2">SIGNAL</text>
  <text x="129" y="91" fill="#3b82f6" font-family="Inter, Arial, sans-serif" font-size="28" font-weight="700" letter-spacing="5">SCHEDULE</text>
</svg>
